<mxfile host="app.diagrams.net" modified="2024-03-02T04:29:50.191Z" agent="Mozilla/5.0 (Windows NT 10.0; Win64; x64) AppleWebKit/537.36 (KHTML, like Gecko) Chrome/122.0.0.0 Safari/537.36" etag="XuDfntTSwdL8MCc9ibxi" version="24.0.0" type="github">
  <diagram name="Trang-1" id="l525t9vst9wEszXXUCDY">
    <mxGraphModel dx="1434" dy="780" grid="1" gridSize="10" guides="1" tooltips="1" connect="1" arrows="1" fold="1" page="1" pageScale="1" pageWidth="827" pageHeight="1169" math="0" shadow="0">
      <root>
        <mxCell id="0" />
        <mxCell id="1" parent="0" />
        <mxCell id="5vxwJddSqAbdK7NkbJr7-1" value="" style="shape=image;verticalLabelPosition=bottom;labelBackgroundColor=default;verticalAlign=top;aspect=fixed;imageAspect=0;image=data:image/jpeg,/9j/4AAQSkZJRgABAQAAAQABAAD/2wCEAAkGBxITERUQExMTFhUWGhgYGBcXFxYXHxocHxcYHCEdFxscISohGCAmHBgbIjIiJisuLy8xGCA0OTQuOCkuLywBCgoKDg0OFQ8PFywbIB4sLi4sLCwsLi4sLi4sLi4uOC4sLi4uLC4uLDguLiwsOCwsLCw4LiwsLCw4LC4uLi4uLv/AABEIAOEA4QMBIgACEQEDEQH/xAAbAAADAAMBAQAAAAAAAAAAAAAABAUBAwYCB//EAEIQAAIBAwIFAQUFBwIEBQUAAAECAwAREgQhBQYTIjFBFDJRYXIjM5Kz0hVCUlRxgcJikUOCodEHFiSxwRdEU7Lw/8QAFgEBAQEAAAAAAAAAAAAAAAAAAAEC/8QAGBEBAQEBAQAAAAAAAAAAAAAAAAEhETH/2gAMAwEAAhEDEQA/APuNFFFAUtqJCCqi12NrkXt2k+Lj4UzSur9+L6z+W9B6tL/En4G/VRaX+JPwN+qmKKBe0v8AEn4G/VRaX+JPwN+qmKKBe0v8Sfgb9VZxk/iT8B/VW+ig0YyfxJ+A/qoxk/iT8B/VW+ig0YyfxJ+A/qoxk/iT8B/VW+ig0YyfxJ+A/qoxk/iT8B/VW+igWdZbbNHf5o36qXj4gQ4jlXBm90g3RvkGsLH5ED5XqjSnE9MJIypF6Bq9F6j6LWlAFkN19HP7vyb4j/V/v8as0BRRRQFFFFAUUUUBRRRQFFFFAUUUUBSur9+L6z+W9NUrq/fi+s/lvQNVA5rkxSI31A+1W/QE5OF+7LpAm1vj/ar9T+LcVi06CSUkAsFFgTckE2+WwPmghPxzUvIpSKRVYphG0EhLqZCrs77CGyi4DWPrve1an4xrMdS8YLtGbRxnSzR3Usozyb3yozOKi5xHxFXY+Lq0sMahrTRmQFlkXbYgbra9ibgkEbbG+xwvjCzvIgSRTG7LdkYKcSBsxFrm/jzQcsOPcQbABSLmxb2WdrgzQKCclWxCSSt4/wCEPjXX8F1DyaeKSRSsjIpdSpWzWGQxbcb3rXxvjcOlQPMSFJIuAT4Fz4+VKNzVphL0iZAQ2JYxuFvdB71rWvJHv/rWg88S15TVwr9qUKkMFgncAtspLoCnkAWPu+bgGpOj43rSkrWzKrqBf2aRVDI5WMqQx6uVt1W5HytY0TzlpmhlliLSGJA5QKwLKSQGG3i43Pp62qpweGFY/sIRChJOAi6W/gkpYebDf+lBzkHHNZ0lkdXsXlQkaaVj92DGwQWcjO63Krf5WuV9Px/XGRSUfp3jyX2SYGx9ly3O/wDxZt7f8EfGu3nlVFZ2ICqCzE+AALkn+1SRzHDb3Zw11CoYZAz5ByMFI7tkYn4Bd7UFuuDm4pq/aMwspdY9QvSGn1ARGyUpdr4TdiswI8nYEZAVfHNGmyVQZDkFN+lJZcpDGMzbsPUBUg7gg38GsNzVpQ0yl2HQDmRijWGBCkXt5uwAHr6XoIvEOJSvpyzDUMVnh6UkcGpiZ1DI0mcai4AXqDuADW2BNruazjGpM4WNHwYw4IdPL9pG2PUd5TYQlAW7GAPZ4OQs9BzTpnTJC7nMpgiMz5BQ57QPAUg38bj12oi5jjaVI1jmIeJJQ/TcABybZgjssPJPjwfFAry5qHlhdpAbiWVReN4iUDnElH3F1Ip7TzGHY3Mf+5T+nxX5enptsPPA+JRamNpYWyTMgNa17Abj5b05JHW5sYuU5G4IBBBB3BHrWyokbNCbqLodyn/ynz+Xr/XzWgmV1DKbg/8A9/as2cal620UUVFFFFFAUUUUBRRRQFFFFAUrq/fi+s/lvTVK6v34vrP5b0DVI8T4bHOoWTOynIYO8ZvYjyhBIsTtT1Qea9DPNEqQkDuu3e0ZtiQLMAR5IuCD8t7UBqODaWNoZGZ4+lhHEOvKijcBVC5gMW2BH71rG9NaTQQCaSWNmzy71ErlQ5VSbx5YhiuJ8X3v61zWo4FrmWPPCR1GmOR1MqhTEyFxgExkzKk5EXu3+kXzxrT6tINXkjBZHR4+lPqZXU5RggBUDKpAZjibC9retB0HHOFaafA6i48xqRI0d+pYFLqRkGIG3rYVoHKWlvcrIdwd5pmuQYjvdt94Y/w1O/ZesES9MJfrJKqHU6gCNB0yUyZMpA+L3DABc/BtW+XherbXLqLhYxjcdZyB9mQQIwoBOZvubGwNgaByPl/SQxSixWJoyr5yyFVjAN7ZNZAB6i1rfKmIeFqFjCySlVfqd0ryF+0gBmYk43Ia3jtHzqFp+C6pYZEKgyNGEz9t1FpHuCZLYfZHy23yXxvWeIcI1sqobKsiQSIMdVMB1sl6bkBAGsFJuR5e29r0HWTxK6sjAFWBUg+CCLEH+1STy5BjiTOd1ZWOonLIQGA6bF7pszA2IuDY3qDBpZ/2igYSMFklkkkEmpC4NGSiFSoishZVGJJON7C7W7mghvyxpiCMZACqqbTTDZZOoDs3vZksW8kk3O5rRDwXQyyTWPVbvSVTM74F2yZQpY9MlgDta1ha1Lcf4PrJNSssUtowIwB1Wj6ZVyWNgrB8gQN/hbwaYj02r62qcxQlJVAS2okUnEFVBIiumQNyQSV9L+aD1BwLR9JcHkxZs0kGolyJZceyQPexA90Gx+FNajgUJKN9qDGoUETTAsoNwJCGvIL791/J+JqQ/BtTJpIopUQywyKwA1M32ijzlJiGDWJ8g+BvvtaiMqrGjRoBgcyJWcqwxCqCygyAi92JB2GxvsHjgXDIoImjiBVMyQuTEDYbLc9o22A2FPutedGwCXJA3P8A71sadP41/EKsqWF5EpOzRtmnr7y+jf8AZvn/AL/J1tRH/Gn4h/3rWzof3l/3Fb71nhrS6lZFyX+hB8g/Aj0piojxsrdRDZv+jD4N/wB/SqGi1iyD4MPeU+R/3HzrFnGpem6KKKiiiiigKKKKAooooCldX78X1n8t6apXV+/F9Z/LegaqFzJxltN0SBCFlcoXmkMSocGcEnE7dhHpuR8drtSeMppwYptRJ0+k90JlaMZEWsQCA/bcWN9i3oTQRxzeS0Y6ca5dK6NLaR+o+N4Ex+1Ueb7XF9hata85MWnAjiIhDNtNe6pKEJJVSF7SWsSD6fEi+eJJ14osC3URnjlGBQ28gHLK9iDe1iCN61/teAJqJLqFgJWRgYzchQT4Jsd8bNY3Hi1iQ5/Wc9Y3wSF/tJkDibsIjWNh3hdmYSePTFtzanIOai+oECLDvFFNYzjqEOrMUWNVOThVysDaxXcXq5oNRBPGHiMbpf8AdxYA2GxtsCLinOmL3sL/ABtQc1ypzT7YzKY1WyLIMZA9gSRiwsCCNt/B3+FdRUHhvMGmkVpRlHHir9R1CK6sSFYNfySPBs24uNxXvivM+lgg9oaVGUqWUK6XcL5wyYBiPhfzt52oPPM/EpYFhePpANKquZWKKFKt5bE4i4G/9PN6SXm0GZYwIGUtCnbNd36iqepCmP2kS5btcbJIf3d+h1M8axmSQqsYGTFyAoHm7E7AVN1PMOjRGlE0DdNVJCyRXCuLruzAAMNxcgGgiLzZNNpNZPCNLeBZrYT9U3RmAcqE91grMt/Nh6G4Y1nN+Cgg6NjjIzEansOGP2cb4d0hDA42FrjzerGq4vpoZk07uiPIpYAlVuAyqAfmS2w9bN8K9rxHS3dBJD9jdnGSfZ4+Sf4bHyfSgmaPmNpdY2lUacBQjENNaWzKSR0sfeX1F9gRvvV+cVq0OqhlHUiaNxcjJCDv6gkevypaXjukEvQOogEuQTp9Rcsjay43vc3G3zHxoJXMTSRQvNHGJCgyKklbqPeIspJIFza29q56Xjto4Z5GghjlmshM6gyQ5YiQB090ghjYiwKm+9q63U8e0ixzS9aNlgBaQIysRa4tYHySCo+J2oPGNEVyOo0+IVmuXSwVSAzedgCQCfS4oOcl4iU1jxSNp1iCRMmUlnbLq7ouP2hJQCwOwAte9qkwc4q0Tt0481eJbCUFQsgYh3IF1AxtuNyyja9fQTr9N1lh6sPWPupkuXu5WUefdGVvgL1t1bwxIWkMaJsCWxA3NgD8bk+PnVRz3AG9p06zhcCxYEBgwurlTZl8g2v8d9wDW/UQTJZ0Y5L4J3/sfiPlV/TOjorxlWQi6lSCCPlba1e2jBqo18J1omiWS1ibhh8GBsR/uKdqPwWHpy6iP93JXX/mQA/9VNWKy0KKKKAooooMGs1g1mgKV1fvxfWfy3pqldX78X1n8t6BqpHHuCLqQl3dGjYsrLb1UqQQfIsar1z/ADW2rCR+zZe8eoUwyC4m2OQItla9gT/1oCDlzBtOU1EqrAuKoFhsQfev2X7gANrW9LVsg4GQ05fUSuuoBDKREALqEBUqoNwigf8AXzUyFZ/aNHNLpnaURFJpVWIe9awJzvYHJiBsMjavUEU7jXxdOdDKWaORlgW/2SJa6+TcWBYXxA3vQWdJw6VIwh1MjEMhDFIhZVIugAS1mAIJ87mxG1qRG1qk8uGTohXGouLC84iBPaPd6f7oPxF/61C02n1UesnMUc6JJqEe2MHRdOnEsjsffDHFiLWuQu27UDC8lR4uGmlZm6ZzxiQ5RkkO+CASMbkFm3t8PNZfkxOk0Kzyr1EeOUhYjmrszEbqcTdm3G++9zYiXqtPqH05T2bVZrqo5kcppQ4XqKzOLHHMAONxvkL3ua96+Xi2KdPq49+JKwGQnLs66gY2x/hx28kGg7aGKyBCcrAAkgd21rkDbeoJ5TQaWTSJNKqyk5v2MxTHAR3ZSAqoFUevb5uSShI/ExLIyCU3eZUVxB01UQZRtdbPbr9u5Pb5HrSWig1kc8s6pq7M2nLl00oeVVWVHFl2JUshB2Nh5IAFB02p4K7tFJ7TKssaOnUCw3ZXKE3UoVBvGtiB8fjUx+SI2eV2nmbqrIpB6d7O6v72ORKsq2vtZQLW8xnl4wVDD2sMEF1K6OxcJMd7D1dYgbfxG1vTseYTN7Oxg6gkulsBGWAzXKwkuvu3oMcC4IumVwHZzI2TMwUb4hfQb7KPN6n63lFJZnnM0oLsGsBHYWEGw7b2/wDTp5+dRJpeLCEoBqS5a4ktprjtcYYgWIJCm+1r7ne1VIuqdZptQ2klDnTtHLLjELM7QsA5D3xUrJe17X2vegzoeR4I1kTqSMjwvpwDjdY3tcBrXuMRb0+IJrdreWGlUB9XNmFljzCQj7OVUDIFwsPu1N9z53+EfRTcXwmEgkz6e1khbGXqKLw+6CuBY2OWyje+xzJJxQQK3/qSxj1K2UaYuHyQwOQygKMQ6m/pa4vvQWtPyuq6ldV1pCy2NrRrkRF0u4qoLC29j6n4ACn+OcLGpi6Rd0GQa62N7ejA7Mvy+Qrm5tXxT2sFI5OkQRi4iKA9C6sWFmH21gQC1hf4gVPSHXq88sceszlj0ymV10oYMjy52VNnFmUDa9ibNYCqjs+B8MGmgTTh2cJezMFBsWJt2gDa/wAKfNTOWpZ200Z1KsswBD5BASQxANkJXcWO1UzVQvpPv5fpj/zp+kNJ9/L9Mf8AnT9ZrQrArNYoM0UUUGDWawazQFK6r34vqP5b01Suq9+L6j+W9A1U7inERDgAjyPI2KImIJIUsd3ZVACgnc1RpPX6GKZQsqKwBuL+h8XB8g2JFx8TQTv2+epHENLqS0idS1ohiMgrZ3cWK3G3rfa9aIeboWM4EcpMKs/aEfqKrFfs8WN9/jbz/Wz8fAtKrpIIYw6ABCBYgDfb+5vU+LQcPIndYFPTyjlHSkuPDlQuN2HhhiCPFqClwTiq6mMyKrLZipDFCQR9DEf9b154xxXoGIdGWUyuUUJ0x3Ys1jmy27VY3/0/0vs4MunEKPpwoikAdSARlkAQxvuSRbzvWjjvBU1XSWRu2N8yhVGDnErZgwO1mPj4g+goE15tiIJEU2xhB+726szw79/7ssbKbf1FxvWyXjMkQ1byJ1V05DKIVsxQqG3DvZiovexF7bD0raOEaGcKwihdY+xbAWXpuRiLbDFwdvQ3pnTcH08UjTJEiu98mA3a5ub/ABvQTZOZC0fUjifATxwlz02UhpFQsuMgJFzjcXsT4NjTMnH1XUHTmGawdEMv2eGTrkv7+e/j3dj8t62zcB0jRJA0EXTj9xLABfXYem9Z/Yelvl0Y73ja9h5jXFD/AMoNhQS4OdIXi1EqxTEadBIwHSOUZL9yEPiwsjHz48Xq7oNS0iZNFJEbkYyYXt6HsZgL/Am/xFIryvogGX2eKzqEYY+VBuF+kEbDwKdj4ZCqJGI1CRsGRfRWBJuP7k0Dtc1rePSrJKVjQxQSxQvdrSM0giN0HgAdZNj73d42v0l/SuU4jw7SS6qHWM8ySF+lHZWVWaMyGzAp8nsxtsO077g1BzH1EJjgmy6RlUHpb2YoV+8tcEb3IBHg1q4hzUkOng1DxyP1oxJ2BFCjBWJYu4VPeFgWP97VsXhOgM0kIhj6rIGcYMMkZ8tmtYgut7A7EUw3LOjKLH7PFimQUW8BrZAfI4rceDYUCuq5pVXCLp55AZOkHTo4mQIXK90gOyg72ttsTS8vO0CoHMcoyTTugPTGYnVytiXstum98iPd2vcXe1/LcMk8WpULHJGwYssceT2GOLMRcDG42+XwFeNJwHQFX6enjCk4N2Fd42NrXsbKb4kbfDaqh7g3Ek1MKzoGCtkLMLEFWKkH0O4O4JB8gkGnTWnRaZIkEcahVF7AeNzcn+5N7/Otpqo0aP7+X6Y/86fpDR/fy/TH/nT9ZrQrFZrFBmiiigwazWDWaApbU+/F9R/LemaW1PvxfUfy3oGa5bnHhjTvpQsKSYysWMkYlRVMbKc1yUkFih2/gBsbV1NQubOKS6eJGiC5M4W7KzADFmJsCBftA7mUb+b2BCIeSZOtFJ7Rl0+luVsUwa5ER3KofGOXjY5CrOk0GrSTUSZ6c9UhlGMmzBUQZd24xT09TUWTmrWCSFegFV0gZso2BbMDMrd7phc9uLHbci4NbeWOYtVNMqTCPBlJGMMsZBwR9yzEW3dbfFf7UGnWcmTSafTQvLEfZ0MeOJwZSqAOQ2VnGJ3A/eNrUzpuUpEnWfOEurwN1CjdQqkBicF73u5sf/e9dVpdQsiLIhurAEGxGx+R3FSeZp2To98kcRciWSMXZRgxUXscVL2Ba3wFxegivySwilgjOnjRpC4KRWZx1TIscvoUUMVAsfCm21jp1XI0jwwxdSL7Pq2LKWCZurdintIFthiLehUbVum5gmgxQOZVPs5jeSCUPIrzukoONgCiBXyxAsRsbg1sXmPU31bXjKwFwirp5snFlxclnC2DEqbecS11FApxjlQtq4maNJo5JZmd+iC6h4ZFUSuz2dEdlxULsFX+G59ankyeRCGlhByhbFEOMhjieP7UNkGuCrbg2KD4A0rHzLqHaF2kELq06OTDO0TKFRkYxq1rkmwOXxt5tVbQ8dkbV6cSgp1dOS0eE32cpMJCsfcYkFrEqCuJB8kUF7gGgaDTxwM2RQEX38XJAF/QAgD+lUq4fQcb1caTCWRHeOZsk9mlBWH2rEtkGIt0mDILXCjfOxNa5OadSVhxaFS808bO2m1BARL4SBQ197KLE75jcWoHk5VddWdWpgDGd5SRG2TRtpzF02a+4ztIR4uL2vSh5S1BgTTn2Mok5nEfSfAgmQ9MrlbEF7D5Dwa7SO9hla9he2wv62+Vc9q9cqcSiTqS2aGRWT7UpmXh6e1sAxBk3/3oJL8kybENpiyJaImNz0W9pM1ou66IqnBbbgKPTau4rjNPzDKE1eJzdZ1wYxajFYmEIMmBJJCFmBVSLlCe0EkJnmzViIykwspGqVGXTz7yQsgRSuZb7QFyBta3k+tR3r3sbWv8/wD5rj05UlMHsz+ydMTpOEWJsQuZZkCk2sR2j5E3801DxdBrD3zHOBWKWmZcwMrIpGKkp6C1/wCtaOUuZpZlnOpAXpKsgZY3XsIJIIye5W3gEne1qCzy5w5tPp1gZlbFpCuIKgK0jMqgHwFVgo+SiqVCsCAR4O4oqoX0f38v0x/51Qqfo/v5fpj/AM6oVmtCsVmsUGaKKKDBrNYNZoCltT78X1H8t6ZpbU+/F9R/LegZqRzBxldLGrsL5MEBLKigkMbu7EKg7bXPklR61XqZxbRJKEzlkjKklSj4EkqVIPowsTsQfQ0GiHmGEqpfONisLFGRiV6pKpkUBXdgVuCQCPNem5i0weSPNsogxe0cpAxALAMFsxAIuASaXm5V05CKDKgRESyORksb5pkfJxYk/wBzetU/LkLPPLE952WRLs2QQyC5DW7rWIIUmwFrAUDS80aUoZOo1hjsY5QzZ3wKIVycNi1ioIOJ+BrzLzXo1VGMps6s4IjlNlRsXL2XsCNs2VsfW1Kw8nwNAI5gzvaO7l3kI6YYLgZL2AybYj943vWxuUNMU6d5QvSlhsr43SVgz7KALkgbj4Cg3avmKNdRHplBdnfpsQHCoemz2zxwZrAXXIEAg1th47EYppnOCQuyMSHuLBTupUMCQw2APkWvetB4BAZgwlmDI6zGMSm2diubL/qAYH0PcfNzWYeW4gkq9XUMJyGcmUm5GO4PzCqD6EC1B7k5m0qxLMXcK7FFHSlyLAEkdPHPYAkm3pXuTmLSrIkRksz4W7XsM/cDtbFC1xYMQTcUo/J+nMA095AgZmsCtiW83W2H9LKLeRY71l+UNIZUmxIZBGPIN+mAFyLAtcAAXBF7b3oOirFeWYAXOwrNBIfmLTCYwF2DhlQ3jlChmtiGkxwBa4xud77V5XmTTHqYuzGNGewjk71XZjF2/agEgEpcAkfGlE5by1c2ombJHeJ0jV5ALxqoUyJfByCoYG3m3wFOaPl+GJsh1CAjRorOWWNGILLGPQHEfEgAAWG1ULvzJpX0yyydUJL2hDFMHYlMiFQLk4Cn3lBGx3rzpeN6GERwxMFVwjphHIUtKxCuzhcRk9xdj5O+9eZ+UNO8aRSGVxGQYy7BygC42UMCtsdtwb2B8gGvT8qacjG8oGEUdlcgYxydRbADY5Em/wAzRDOj47HJPNpwswaFsSTFLiexXNmxx/esBe5tcXBFbuDcSXURCZdgWdbdwIKOybhgCD27gjY7eleG4OvWeYPMpfdlVyFLYCMMR8QoHy7QbXrxw7gaQRyRJJPaQuSWkJZWcsWZD+6SzFr/ABqimawaFFgBubep8/3oojRo/v5fpj/zp+kNH9/L9Mf+dP1K0zWKzWKgzRRRQYNZrFZoCltT78X1H8t6ZpbU+/F9R/LegZrn+aOHNK2nYaeOcRu7MrlALGJ0t3A33YH/AJa6ConM3HPZY1YIJGZrKl2F7KWJ7UY7AX8W+dBD/ZOvj6SIWYD2QkrOwVDHK3VQK27K0RVRtY43IB8tLpdYF1iLG6dUlom64ZlJVFIBNyvhmHoNht6bYuajJJp0iiRhPEswLTqhUErdStiS3dtbzY+LXrWea3xaUQJ0rOynrqGskiI2ceN0NmZrC9sbEqTQUOVNNPHAV1BOWbFcnZzjtYMWZrHztk39fQIc46DWytH7MXAUNe0pjUsSti+JDWAB37wMj2GrHBeJifq7KOlK0Xa4cHEKb3sLXDDb0p6QmxsATbYE2ufmd7UELTaaf22djG4glRFy69yGXq3ZVvdAwZAAtrFSfWscncOl08IhkR1wVFyadpQxAsTGpJ6a+CBt58bUknNXWglKlIWGmj1Ctmj2zz7GUgAEFCPnkPFbtVx+ZRozGIHWZWLs0vTF1jysCFIG9z/a3zoPfOuk1ksaJpSVN2LMsjRsDj2eHW63uTe/gdp3tGfhPEzN1g0q9yNh7SSot7LcYe6RtqdrW+0X4C1/T8wM+qk06xxFYwGMnXXdWQsCExv5Av6AEG58UppOZydPG9keaSeXTheooQMrze/IF2XGI2ON27drmgjQcu8Rk02r0+okLGWBkF5Gxab0YHNiqHwVCopG2FdjwVHWLF0kTuNhJMZ2t5uzkn1vtc2AH9Bz0/POEixNp2LWVpMHMgUNK8YwZEKvbAk5FPNtzcB/hXM/W1b6XphQvVxfO+fTcI1gFx8n0YkW7gDtQKc06TXvqYpNNcRx9M7SlMj1byK6lgpvGAB2t7zXtYUvqNDxBWcIzhVXVASNqCQQ0gkj7TcgqgZMiLi48gV2tczr+bFi1qaPAMGZEZwzDCR1LKrDDHcWPvXswNqqIHBodVIJJovaSgnZVjfVybwHSBe12NmKztlle4sbE2sd+n4XxXq6d3lNlXTh7SXAxVRMHGYWQuQxywY9wsVIqgvOgwyMSgmNWCiZSQzTiDF7qMFDMDn8L7bVnV8x6lTABDpwWneFwdSCu0DyjFwnbe1+5bjG1u64DpdWrmNxGQrlWCMRcBrGxI9QDauJ4VwriaIWkeRyrwOE6x7yrnq2YyNs6H3WKrcCyrVhOagZhGEQoZBCHEyljIY+pcR2uY7fv3v64471t5d4+2pjaZo44o1yGXXWTdWZSWsBivbcEnceQKo3crwTpplTUX6gaXzJ1TiZXZAXO7EIVXf4VWrANFVGnR/fy/TH/nVCp+j+/l+mP/OqFZqwVis1iorNFFFBg1msGs0BS2p9+L6j+W9M0tqffi+o/lvQM1L45qIEVBOgkycBE6ZlLOFZuxACSQqs1/QKap1H5h4SdSipkgCtkRJEsytsQLqSCLE3BUg3FB40c+hcRyp7OCenhdURhmMkGLAMhIuQtgfNezNoFeUltIHPbMbxBjfa0vrv4s1S5uUmJjx1DWUaYPmgdnOnlMiNlcWuWIPnYDcb3n8T5MkWPUGJuo0uwjCqgGU6ysxzYplcH3QoN+4MdwHUabWaOKIPHJpo4mNlZWjVGbxYEGxO1rfKmRxGEydHqx9T/wDHmuXi/u3v4INcrruRhLaXrusrFy5xspDpGpXCJ0ttEovkQd732s1HyfZgetsGhb7sZWjgMOOeV91N7+hoNrcQ4cGnQJAemnUlKrGVN3PaW8F8x4O9yKf1PsSxIso0yRsQyLII1Ut57Qdr732+NRYOT5FDgalO6BdMLaZBaNSSCbNZmsSL7DfYCvXE+TmnjhR9TvEjR5iKxKkr4s9gbIos2Sm26mgt20nWZB7P1iDkv2eZUjfIe9YisaSDRyRsIl0zxsbOEEbKSPRgNiR8DUbV8mLJqJZmmYLKsoZUXEnqRGI3bIrcLazBA3aLsRcFzlfl32TqEymQyYC5DiwTID35H37vSw+QqoqNwuA4XhiPT9z7NOz6Nu3+1aIW0yySmIQmZReVYhH1D62YDe59L1SvXI8N5N6E7Tx6hr2l6eSu+BlbJr3kxYZegVb2FyTvQXYuMQGBNQzrHG9rGUiPc7WOR2O3itM82haYZtpTNdVGRiMl/KgX7r33AqLqeTGeGKJtScoS+DhGQYuAGVljkUsfnkPNrEVoj/8AD5VIIntbDH7IbYLpgN8r/wD2y/iag6BX0I6rA6QWJWY3i8sd1lPxJHhvNqW1Os4akUUbHSCGVj0xaLpkqCxI/dAGPvfEgeSKj6X/AMPhGrIuoJBRY0zRnsglSSzBpCrboB2hRudqpzctMVGMyh01EmoQmFWUdRXUoyZDIWkJvcbgfCxoeafRhsy2lDANHkTEDZVBZL+bBSCV9Aa9cPOjdXSD2ZlI71i6ZBBuO8LsQdxv86hcS5NaVmPtNg7GRh0UJMjaX2ZmvkAAUscQNj6kbDfw/lmTTdWSGVDI0bot4woDEhlZrE3Aa+3wNvSiOmAtsPAorygIABNyALnYX+dhsKzVRp0X38v0x/51Rqdovv5fpj/zqjWa1BWKzWKis0UUUBRRRQFK6r34vqP5b01Suq9+L6j+W9AxUTmOWcGBYWkQPIRI0cQlxTpubm4IXvCC/wAzVqpPHuPQ6RVaUnvbFQMbkgEndiFAAHqR6DyRVRE1nFNaNPp5QsweSBxIiQZMs+KlbqQSoJDjft8b+KzxfiOsDq0QnxWCOQoNPkHkMgDITjcHEklRYi1/jVSDjfUl0xiwaDURu6v3BgVAPg7Wsw+dwaQTn7RksEMjkFQAqqS+UqRAqMrjvkQd2J7r2tvUVu4nrNUNUEVpkTKLAJp+qkikjqdWT/hHyBcrawPde1dLXIv/AOIGiCBz1ASdlZVVscEfPuYC2MiEC9zfYXqhp+aIHlWJVlIYoFlx+zJePqoAb37k38f1ttVRerl+ZNfq4pSIhMyMiFBHCJbOJO8MQpxBjPr8Nt9q9cP5rV4utJBPGOv0ASFIyOoaBdwf4gMttifW161yc8QC32WpO7jaNdijyoQe7zlC/wDtQbOIPMmvRw+pMLogCRxCRMg5uHbE9PYg5Ej4A7WrpK8xSBlDDwQCP6EXrJNBmuG5r1/Eknk9mEpjVUKBdOJAzdKdiMrXPfHCvnbqt62IpDnbS9EzsJo1ARlzQKXDsUUpvb3gR3EW8+N6P/O+lMXWQTSKFkdxGgYxrGbMz72tfxiTfyLjeg8azX632oKiSYF4QidG8bxEJ1Xllt9k63kslxfBdmy22aWS3E5rRagI8UalzHJ0zIrSEkMe0dmIuPNrVsXm3T7FxKgLyIS6ABSmn9oOVibAxXYWv4NbuX+ZtPrMxCxvHiWU43s2WJ7SRvidr3FtwKokctcS4i+rdNTGVjAkuOm4CkOMOnJ0wrAre/e5Ox7fFe+TtbrpusNT1E7VwZoeli5zyxV0BNu3bvX/AFteuj4nr0gieeT3EFz4H/7ED/c1Ei500zRrKolZWjnlFlU7QOqSD3rEqWHgkEbgmiE+Wp5xoCkx1plSJFYvBdlfHFhHdb6ix3z7gb3ua1niGtXhcDxQyLOoiSZWjYMlk72jQo5fusAQrbE7G1VJuaYlcRiLUPk5jDLGMS4jMjICWG4RSSfGxFyQRWqXnbSqnUbqKCkDpkFXNZg5TElrD7t75EAYmge5Z1E8mmR9StpTlftZNg7BSVYKQStidhvfYeKqUlwfikWphWeFro2QHpurFSD/AEYEfD4XFO1pGrRffy/TH/nVGpuh+/l+mP8AzqlWL61BRRRUUUUUUBRRRQFK6r34vqP5b01Smr9+L6j+W9BvpLifC4tQoWVScTkpVnRlNrXV0IZbgkbHcGm71F5n4Q+ojUxMqzRtlGz5FNxiwcL7wKk/3Cn0qo2nlvTZxyYPlEAEPVmGIBv4zsb+t739b0lBwPh7yyRKt3QozxiWayHMOpVMsUGaX7QBdancQ5VlVVj0pjKBIEJlllDBopS+YxVsy4Yg3I/v4pziGk1PV1UzJEYpNP0gEeVpLJ1mUhBHYljLawba2xNA0eUNFawhZfG6yzKwAULYMrhgLKoIvY4rfwK2twLSI6sVxdpI2S8sm8kcbBcQWsSIw23qAb3tXM8J5Z1B0qupWOS2ldYydQoMkMubtKXuyNILxkhTsbnPazUnK8x08KsmmeSHUTShGklEZjk6vZngWGPUW3afuwNr7BcblnSnqXja0pyYdSYANmJMowGtE3UAe6YnLfzS2n5T0G+Ed8WIP20zWbJmN+/zk7E/HI381On5f1p18WrDwBE6YKh3Xs6eLpbpkt3EsCXANlBUEZV6l5YmHtccXRiE/UKzq8nVGeJxK42UXBGQYmx8Cg6LScNSN81y2jSJQSSFRCxFr7km+5O5xHwp1h6Vz3JnB5tLFIkzA5PkqrJ1FQYgWX7KPEEi9gtrkn1NdBVEUcqaPDp9I4hBGB1JjZQ+YxOV1IfcMO4ehqdzJy9ohpTE5WIMGjWWQySsOpa4LM2TXt4YkXCm21WeYNDJPppIY5DG7iwcEi24JFxuAQCtx8fWub03LutTQyaUGEtJIGs8zlI0GBtGVgXyyXxxAGRN/SgrDl3SCWN5VDzkecpArssXTZulkUBMfabi5FgSbU5wfhengMiwXvdQ4MskhXa4XvZsBZrhRYWIpHX6LVvqNNOsemBjH2l5pQTkrqyLaKzKMgwJsSR4HmsaXgjx66XULHAUlYOZC8gkU9MIVCY4kErlkW/eIt60RX4loI54zDKuSEg2uykFSGBVlIZSGAIIIIIqW3KGiMYi6JxBka3Vmv8AaW6gLZ5FXsCyk2JFyL71V0EsrKxlQIc3CqDfsDEIW+bKAxHplb0piqOe/wDKcY1ceqVsRFuIxmcm6TRXcs5UnBvIUMcVuxtWyPk/RKpQQsAQo+9nuoQsVCHO8eOTAYkWBIG21UuK6Z5YJYo5DG7xuiyDyjMpAYf0Jv8A2rkOFcq6uKFgXjLiWGWNDMxS6N33ZYUMea7Htb4m9B2Oh0SQxiKMEKt7Asznc3N2cljufJNb6kcrcPl0+mWGUoXDyt2MzKFeV3VQWAParBfH7tV6qNeh++l+mP8AzqjU3QffS/TH/nVKsX1qCiiiooooooCiiigKU1nvRfUfy3pulNZ70X1H8t6DbXL85cYOmk0hE8UWcjq3WbGMp0XOT+uzhANwLuATvXTUrreJRRFFkdVMhIQG/cQLkD47b/2rSOYk5nXq8Pd51hMxbqQmRcSpjmCP3AMVaRVxba9wLV5Xnge3S6Q9JVUTYszBSHiFyHXLIA2Y7qtwtwWBvV/S8wwSyRRxOH6yNIrA7FVIFwDu1zfcfD5ivGk5m00hmCyWMJYSXBFgpALfMXNqg57Sc7u0RZhpg+GlkyDt0o0nz3lPnsw3OwJdR27ml9JzeF00MkmrgJOrkRz1QLxie10NhdFjdW3HulTfe56t+ZNII1lM6YOWANzvj71xa4x9bja+9qpxyXAINwRcEG4I+VUc1quOvHxBYWm06wSRxNGHJDSMZHVukf3293bcAFfjXT1LbmDSiVoDOnUW+S3NwQmZH9cAWt5IBPpWvU8xQiKWSIiYxRrMyIyg9NlLBgWsLFQSN97URYrjpucJF4j7CYkC9RY7tIiuwaMN1VUsCygnGwU+6xyuMau6ziwjfTKY2I1DYBgVsrdN5AGBNzdUbcVti4tA0x06yKZVBJTcGwte3xtcXt4uKDm+Ec5dUN1JNIl4XmR1kOKhZTEeoT6XsbjxuPnSZ52x0uleOTTSO8b9TqSEkNGiMwuvrZrm4Frg2rvsjUvjPGegYl6U0rSsyqIsL3VS5vmy/uqx/t/Sg9cv8R9o06TdlzkGwN1yV2Q2/up2PiqNSNNzLpXCkTL3mIAMCpBl9xWBF1JIIsfUEV6g45Cwncuqpp3KO5YWFlVjf1X3rWO+3wIqhXmzjMukRJlRXjuVk2cspKnplVX3gZMU/wCcfOouv5y1MGoh00sEIZhDkOqq5GRrMIc2Bbp/INkdu3Ynr+H8QjmTqROGW5FxcWI8gg7g7+DWninF4NOAZ5Vjyytf1AtkbDewuLnwLi9EQ+Hcei9u1kPtaOESN1VnQiNl63VAtuAtkyB8f3pPS8zNJwyaeGeFpoXkDtlmFUTuAxt4UxgML/un1810n7d03V6HXj6n8OXrjna/jLDuxve2/itHCOY4dTNJFC2YjSN+oCCrBy4GPr+4d/BBBFwaBrg2uWaISLJFJckZwkshsSO0nz/3vTtFYqo8aD76X6Y/86pVN0H30v0x/wCdUqxfW54KKKKiiiiigKKKKApTWe9F9R/Lem6R4iSMHCs2LEkLa+6sNrkepoNtI8a4WmpiMLl1BIIaNsWUg+Vb0Nrj+hIrz+0z/L6j8Kfro/aZ/l9R+FP11pkvqOBBpoZVnmjEICpEnRwC7AjujLWYAA93gbW81p1fLSydZfaNQscxLGNTEFDkqSwumTXKDtYlTdgRY2p79pn+X1H4U/XR+0z/AC+o/Cn66YIH/wBPdPgqdWa6NIVbHTGwkxzUJ0umFJQMO24Pg22rqNDpliiSFfdjVUXwNlUKNgABsPQAUt+0j/L6j8Kfro/aR/l9R+FP10wJ/wDlxOsZ+tPczrqCt4schD0cfu74lNvN9r3pPTcmIiSRrqtXZ4Y9Pe8BKwxl8UW8XwkYEm5N/N96sftI/wAvqPwp+uj9pN/L6j8KfrpgQ1PLhcQA6zV307ZIR7NctZ1Bb7GxsjsmwAt5ud616TlGKPWHXCWYyEyHE9Egh9ypbp9RlBtiC3bYAbbVS/aTfy+o/Cn66P2k38vqPwp+umBnSxFVxLs5uxybG+7EgdoAsAbDa9gL3O9I8Z4P7QYm600LRMzK0XSvdkKG/URh7rEf3/pW39ot/L6j8Kfro/aLfy+o/Cn66uGpUvJ8RaMpNqI1QQAorRkP0JDJGXMiMxIYkmxF7716PKy/+py1WpYareQN7PYEKigqOj6JGqWNwRe4JN6pftFv5fUfhT9dH7Rb+X1H4U/XTDXngXCF0sXRRnYZM12wG59AqKqqPgFAFJ8y8tR63DqSSoEzFkERvlYE/aIxVgBsy2Iud6d/aDfy+o/Cn66P2g38vqPwp+umJqNPyNpnnacmQhyxaMiIhmaMxk5shlF1Po43/qaZ0PLhieSX2vVO8kSw5N0OxVLFCmMQ7lLtYte+W4NUP2g38vqPwp+use3t/L6j8KfrphpxRYAXJ+Z9fmbVmkvb2/l9R+FP11j29v5fUfhT9dXsTlN8O++l+mP/ADqnUrhWReSQo6AhAA1gdsr+CfjVWsX1ueCiiiooooooCiiigKKKKAooooCiiigKKKKAooooCiiigKKKKAooooCiiigKKKKAooooCiiigKKKKAooooP/2Q==;" vertex="1" parent="1">
          <mxGeometry x="50" y="280" width="110" height="110" as="geometry" />
        </mxCell>
        <mxCell id="5vxwJddSqAbdK7NkbJr7-2" value="Text" style="text;html=1;align=center;verticalAlign=middle;whiteSpace=wrap;rounded=0;" vertex="1" parent="1">
          <mxGeometry x="75" y="400" width="60" height="30" as="geometry" />
        </mxCell>
      </root>
    </mxGraphModel>
  </diagram>
</mxfile>
